HIERARCHY
ROOT hip
{
	OFFSET 0.000000 0.000000 0.000000 
	CHANNELS 6 Xposition Yposition Zposition Xrotation Zrotation Yrotation
	JOINT abdomen
	{
		OFFSET 0.000000 3.402643 0.000000 
		CHANNELS 3 Xrotation Zrotation Yrotation
		JOINT chest
		{
			OFFSET 0.000000 8.438565 -0.680529 
			CHANNELS 3 Xrotation Zrotation Yrotation
			JOINT neck
			{
				OFFSET 0.000000 10.207942 -0.272212 
				CHANNELS 3 Xrotation Zrotation Yrotation
				JOINT head
				{
					OFFSET 0.000000 3.130431 0.000000 
					CHANNELS 3 Xrotation Zrotation Yrotation
					End Site
					{
						OFFSET 0.000000 3.130435 0.000000 
					}
				}
			}
			JOINT lCollar
			{
				OFFSET 3.470700 6.669187 -0.816635 
				CHANNELS 3 Yrotation Zrotation Xrotation
				JOINT lShldr
				{
					OFFSET 3.198488 0.000000 0.000000 
					CHANNELS 3 Zrotation Yrotation Xrotation
					JOINT lForeArm
					{
						OFFSET 10.139888 0.000000 0.000000 
						CHANNELS 3 Yrotation Zrotation Xrotation
						JOINT lHand
						{
							OFFSET 8.370511 0.000000 0.000000 
							CHANNELS 3 Zrotation Yrotation Xrotation
							End Site
							{
								OFFSET 4.083176 0.000000 0.000000 
							}
						}
					}
				}
			}
			JOINT rCollar
			{
				OFFSET -3.470700 6.669187 -0.816635 
				CHANNELS 3 Yrotation Zrotation Xrotation
				JOINT rShldr
				{
					OFFSET -3.198488 0.000000 0.000000 
					CHANNELS 3 Zrotation Yrotation Xrotation
					JOINT rForeArm
					{
						OFFSET -10.139888 0.000000 0.000000 
						CHANNELS 3 Yrotation Zrotation Xrotation
						JOINT rHand
						{
							OFFSET -8.370511 0.000000 0.000000 
							CHANNELS 3 Zrotation Yrotation Xrotation
							End Site
							{
								OFFSET -4.083176 0.000000 0.000000 
							}
						}
					}
				}
			}
		}
	}
	JOINT lThigh
	{
		OFFSET 5.308129 -1.633274 1.361059 
		CHANNELS 3 Xrotation Zrotation Yrotation
		JOINT lShin
		{
			OFFSET -2.041588 -20.007561 0.000000 
			CHANNELS 3 Xrotation Zrotation Yrotation
			JOINT lFoot
			{
				OFFSET 0.000000 -19.190928 -1.224953 
				CHANNELS 3 Xrotation Yrotation Zrotation
				End Site
				{
					OFFSET 0.000000 -2.449906 4.627600 
				}
			}
		}
	}
	JOINT rThigh
	{
		OFFSET -5.308129 -1.633274 1.361059 
		CHANNELS 3 Xrotation Zrotation Yrotation
		JOINT rShin
		{
			OFFSET 2.041588 -20.007561 0.000000 
			CHANNELS 3 Xrotation Zrotation Yrotation
			JOINT rFoot
			{
				OFFSET 0.000000 -19.190928 -1.224953 
				CHANNELS 3 Xrotation Yrotation Zrotation
				End Site
				{
					OFFSET 0.000000 -2.449906 4.627600 
				}
			}
		}
	}
}
MOTION
Frames: 13
Frame Time: 0.011111
-9.144350 33.958153 3.921245 -31.506710 29.818645 -163.844894 92.927872 -4.853298 -0.490374 -26.276518 -0.866599 -1.908165 -37.201355 -0.513846 -2.565173 36.056774 23.534864 0.769590 3.554561 -11.856053 1.830316 71.558731 -84.236046 -110.871635 -38.855145 4.315720 3.993889 8.524705 12.647240 -59.886124 1.017460 16.414410 0.108193 -86.298355 77.130241 -85.090042 63.377277 -9.453507 13.947898 -8.534408 -12.637552 66.732277 -75.980583 41.673264 16.686359 126.069633 6.243964 -8.719789 -26.019102 -17.235577 -11.202106 -63.473248 -47.766830 -22.903416 102.400787 -3.017191 9.735842 -16.100014 20.024094 9.745843 
-8.441216 33.813286 3.972797 -31.383320 29.339825 -162.639923 92.408417 -4.156786 -1.027536 -26.139444 -1.077131 -2.105297 -37.344372 -0.694645 -2.615093 36.449657 24.466866 0.841401 3.554561 -11.856053 1.830316 70.162682 -83.438553 -112.228104 -37.629139 3.852073 3.581444 8.524705 12.647240 -65.384171 1.017460 16.414410 0.108193 -82.195419 77.174294 -81.285912 62.737453 -9.435570 13.655422 -8.534408 -12.637552 66.810410 -76.962921 41.474670 15.863222 126.403252 6.294974 -8.708446 -26.566620 -17.944296 -11.760222 -64.946831 -48.888050 -21.785881 104.084404 -3.240942 9.720052 -15.777819 21.061159 10.035448 
-7.685224 33.518654 4.096784 -32.461224 28.765919 -161.910629 90.591026 -3.872133 -1.325591 -25.992338 -0.093990 -2.141114 -37.071026 -1.005680 -2.851460 36.166195 24.159855 0.119940 3.554561 -11.856053 1.830316 -107.563034 -96.276054 58.716137 -36.138290 3.258861 3.085120 8.524705 12.647240 -74.388077 1.017460 16.414410 0.108193 -83.685257 77.295624 -82.165291 62.352612 -9.417464 13.464550 -8.534408 -12.637552 67.083847 -79.143913 41.048042 15.364944 127.012657 6.369677 -8.666845 -27.200405 -18.317808 -12.151817 -69.020294 -50.619442 -19.351948 106.206810 -3.554065 9.659470 -15.354995 21.803600 10.175916 
-6.903780 33.230545 4.206088 -33.174480 28.534868 -161.377762 88.937340 -3.647573 -1.762552 -25.914303 -0.384592 -2.133662 -36.777775 -0.993010 -3.184529 36.671432 24.617035 -0.277911 3.554561 -11.856053 1.830316 -107.495056 -96.649750 55.182060 -35.201412 2.874971 2.787113 8.524705 12.647240 -80.852921 1.017460 16.414410 0.108193 -82.277733 77.919174 -81.220161 62.363274 -9.418479 13.475039 -8.534408 -12.637552 67.347519 -81.609947 41.746708 14.384409 127.789673 6.460935 -8.597066 -27.928709 -18.946596 -12.727704 -72.484825 -51.349434 -17.229010 108.319984 -3.866738 9.607622 -16.075071 22.252913 10.604836 
-6.137020 32.922863 4.328444 -34.015781 28.433571 -160.941223 87.050255 -3.508855 -1.870568 -25.670460 -0.106829 -2.090391 -36.940735 -1.416048 -3.665269 38.496895 24.355335 -1.039182 3.554561 -11.856053 1.830316 -106.507957 -96.696350 48.716263 -34.336761 2.507412 2.510652 8.524705 12.647240 -88.802139 1.017460 16.414410 0.108193 -81.526131 78.100830 -80.354843 62.045212 -9.410314 13.339077 -8.534408 -12.637552 67.533066 -84.630798 42.082443 12.948312 128.665665 6.575061 -8.523329 -28.401035 -19.374269 -13.136541 -76.041573 -51.977695 -15.209700 110.406265 -4.139915 9.547912 -17.566608 22.377623 11.178571 
-5.371890 32.556450 4.476575 -35.293556 28.000971 -160.762894 84.809090 -3.597083 -2.412815 -25.182739 0.352930 -2.077492 -36.865131 -1.413610 -3.848688 37.808918 24.932949 -1.414075 3.554561 -11.856053 1.830316 -104.887115 -96.689087 45.962818 -33.434776 2.115772 2.232340 8.524705 12.647240 -92.640030 1.017460 16.414410 0.108193 -81.385277 78.155334 -80.131416 61.659348 -9.384778 13.150390 -8.534408 -12.637552 67.445168 -87.516151 42.096565 12.190766 129.620178 6.691389 -8.462046 -27.891855 -19.333078 -12.981659 -81.108528 -53.021660 -12.223411 112.581253 -4.451890 9.468268 -18.893154 22.324503 11.628644 
-4.616223 32.217445 4.595994 -35.803864 27.543556 -160.460052 83.423180 -3.744939 -2.953401 -24.782526 0.307579 -2.090202 -36.544949 -1.759861 -3.729505 36.889130 25.318336 -1.477582 3.554561 -11.856053 1.830316 -104.698158 -96.835144 44.836407 -33.692307 2.233514 2.316557 8.524705 12.647240 -95.862679 1.017460 16.414410 0.108193 -80.119141 78.160629 -79.165909 61.349735 -9.367196 13.018147 -8.534408 -12.637552 67.396347 -89.322685 43.121792 12.209535 130.605835 6.818091 -8.371683 -30.106077 -15.910598 -11.333931 -84.968597 -53.708485 -9.910007 114.709747 -4.744920 9.370585 -20.521297 22.254166 12.184066 
-3.870671 31.845810 4.736948 -36.214642 27.566374 -160.038483 81.886841 -3.739367 -2.759236 -24.510061 0.949726 -2.004410 -36.409161 -2.270119 -3.860681 36.775517 25.135094 -2.041572 3.554561 -11.856053 1.830316 -104.234566 -96.635818 42.575550 -34.177738 2.435556 2.463512 8.524705 12.647240 -98.684952 1.017460 16.414410 0.108193 -78.398331 78.417763 -77.746506 60.573784 -9.323011 12.668966 -8.534408 -12.637552 66.546730 -91.703415 44.242859 12.046179 131.709702 6.944931 -8.286177 -31.743383 -12.622920 -9.405501 -88.246902 -54.282192 -7.676301 116.595551 -5.036906 9.262072 -18.403759 24.681177 12.485620 
-3.142086 31.442854 4.916728 -36.859215 27.393276 -159.597305 80.091438 -3.605695 -2.889966 -23.895229 1.078437 -2.000223 -36.219784 -2.604604 -3.928907 36.496819 25.367210 -2.348897 3.554561 -11.856053 1.830316 -104.551956 -96.821083 41.526222 -34.624741 2.628125 2.596254 8.524705 12.647240 -101.585342 1.017460 16.414410 0.108193 -78.062912 78.465584 -77.288635 60.583115 -9.319760 12.670896 -8.534408 -12.637552 66.624863 -94.232384 44.730801 11.843972 132.805237 7.072243 -8.181513 -32.346233 -11.272717 -8.535947 -92.536224 -55.212383 -4.819590 118.570717 -5.300831 9.169214 -16.377073 26.416666 12.384773 
-2.450697 31.092102 5.079869 -37.083973 26.875219 -159.015198 78.927315 -3.633469 -3.214473 -23.475651 1.277408 -2.021000 -36.009968 -2.911452 -4.030805 36.186226 25.515652 -2.728801 3.554561 -11.856053 1.830316 -104.981682 -97.031647 47.058350 -34.833561 2.720515 2.664557 8.524705 12.647240 -97.806038 1.017460 16.414410 0.108193 -77.844009 78.378693 -76.945587 60.498135 -9.314603 12.635708 -8.534408 -12.637552 66.917831 -95.965805 45.458035 11.780950 133.861511 7.189664 -8.093224 -31.596636 -11.595099 -8.672576 -96.378494 -56.302036 -2.050588 120.410431 -5.537324 9.081189 -15.516062 27.394421 12.410966 
-1.779536 30.699585 5.246924 -37.163666 26.490435 -158.295456 77.803398 -3.487092 -3.279471 -23.065817 1.467044 -2.029045 -35.760330 -3.218263 -4.159235 35.898567 25.493919 -3.192154 3.554561 -11.856053 1.830316 -105.302841 -97.183777 54.554733 -35.081821 2.818173 2.742703 8.524705 12.647240 -90.999405 1.017460 16.414410 0.108193 -77.667900 78.273514 -76.709686 60.359200 -9.302495 12.565390 -8.534408 -12.637552 67.259628 -97.414505 46.174488 11.891403 134.870087 7.317076 -7.998876 -31.281408 -11.335733 -8.489870 -99.906448 -57.622631 0.302325 122.243050 -5.788906 8.959654 -15.379455 28.048832 12.599154 
-1.130564 30.292061 5.435515 -37.242687 26.032068 -157.548737 76.701950 -3.368013 -3.385327 -22.685266 1.685089 -2.036377 -35.512676 -3.563765 -4.261567 35.594040 25.588711 -3.603503 3.554561 -11.856053 1.830316 -105.253860 -97.207008 62.532791 -35.529713 3.006114 2.891582 8.524705 12.647240 -82.659554 1.017460 16.414410 0.108193 -77.998489 78.364235 -76.954887 60.444218 -9.307961 12.602057 -8.534408 -12.637552 67.484238 -98.600624 46.706139 11.931354 135.691116 7.405116 -7.915900 -31.255560 -11.827078 -8.802539 -103.960373 -59.039696 2.978595 124.125755 -6.024374 8.852204 -15.642803 28.474146 12.890862 
-0.555983 29.986336 5.632589 -37.142067 25.483952 -156.753616 75.856834 -3.205484 -3.498686 -22.392427 1.811400 -2.070390 -35.288994 -3.976025 -4.307021 35.341030 25.860210 -3.879136 3.554561 -11.856053 1.830316 75.678802 -83.146812 -110.525223 -36.288143 3.319308 3.130167 8.524705 12.647240 -74.065804 1.017460 16.414410 0.108193 -76.383759 78.169708 -75.479248 59.933838 -9.272382 12.386116 -8.534408 -12.637552 67.650253 -101.052017 47.165451 10.148538 136.452347 7.473124 -7.849801 -29.555433 -15.370578 -10.865017 -107.725121 -60.433567 5.533483 125.785805 -6.246991 8.717935 -15.465819 28.813822 12.942360 
